<svg width="24" height="24" viewBox="0 0 24 24" fill="none" xmlns="http://www.w3.org/2000/svg">
<g clip-path="url(#clip0_8_201)">
<path fill-rule="evenodd" clip-rule="evenodd" d="M22.5 16.5C22.5 17.5972 21.3547 18.75 20.25 18.75H14.25L12 21.75L9.75 18.75H3.75C2.64525 18.75 1.5 17.5972 1.5 16.5V3.75C1.5 2.65275 2.64525 1.5 3.75 1.5H20.25C21.3547 1.5 22.5 2.65275 22.5 3.75V16.5ZM20.0002 0H3.99976C1.79101 0 0 1.77825 0 3.97275V16.6403C0 18.8333 1.54125 20.25 3.75 20.25H8.72926L12 24.0008L15.2707 20.25H20.25C22.4587 20.25 24 18.8333 24 16.6403V3.97275C24 1.77825 22.209 0 20.0002 0Z" fill="white"/>
</g>
<defs>
<clipPath id="clip0_8_201">
<rect width="24" height="24" fill="white"/>
</clipPath>
</defs>
</svg>
