<svg width="20" height="20" viewBox="0 0 20 20" fill="none" xmlns="http://www.w3.org/2000/svg">
<path d="M3.75 17H0.833333C0.375 17 0 16.625 0 16.1667V7.83333C0 7.375 0.375 7 0.833333 7H3.75C4.20833 7 4.58333 7.375 4.58333 7.83333V16.1667C4.58333 16.625 4.20833 17 3.75 17ZM9.79167 2H6.875C6.41667 2 6.04167 2.375 6.04167 2.83333V16.1667C6.04167 16.625 6.41667 17 6.875 17H9.79167C10.25 17 10.625 16.625 10.625 16.1667V2.83333C10.625 2.375 10.25 2 9.79167 2ZM15.8333 8.66667H12.9167C12.4583 8.66667 12.0833 9.04167 12.0833 9.5V16.1667C12.0833 16.625 12.4583 17 12.9167 17H15.8333C16.2917 17 16.6667 16.625 16.6667 16.1667V9.5C16.6667 9.04167 16.2917 8.66667 15.8333 8.66667Z" fill="white"/>
</svg>
