<svg width="34" height="34" viewBox="0 0 34 34" fill="none" xmlns="http://www.w3.org/2000/svg">
<path d="M1 29.4444V4.55556C1 2.59188 2.59188 1 4.55556 1H29.4444C31.4082 1 33 2.59188 33 4.55556V29.4444C33 31.4082 31.4082 33 29.4444 33H4.55556C2.59188 33 1 31.4082 1 29.4444Z" stroke="#C5E117"/>
<path d="M20.2997 20.2884C21.3993 19.1858 22.0791 17.6644 22.0791 15.9842C22.0791 12.6178 19.3502 9.88889 15.984 9.88889C12.6176 9.88889 9.88867 12.6178 9.88867 15.9842C9.88867 19.3504 12.6176 22.0793 15.984 22.0793C17.67 22.0793 19.1962 21.3948 20.2997 20.2884ZM20.2997 20.2884L24.1109 24.1111" stroke="#C5E117" stroke-linecap="round" stroke-linejoin="round"/>
</svg>
