<svg width="20" height="20" viewBox="0 0 20 20" fill="none" xmlns="http://www.w3.org/2000/svg">
<path d="M6.07532 6.6859L6.07282 6.68755L6.07044 6.68943L6.07532 6.6859ZM17.1354 6.51724C17.0581 6.45662 16.9723 6.40357 16.8799 6.35919C16.749 6.2965 16.6036 6.25632 16.4529 6.24115C16.3021 6.22597 16.1492 6.23612 16.0034 6.27096C15.8577 6.3058 15.7223 6.36459 15.6056 6.44371C15.4889 6.52282 15.3934 6.62057 15.325 6.73092C14.9422 7.34456 14.4143 7.89066 13.7716 8.3379C13.8699 7.88728 13.9195 7.43051 13.9197 6.97284C13.9218 5.58055 13.4704 4.21267 12.6116 3.00849C11.7527 1.8043 10.5171 0.806819 9.03043 0.117599C8.86667 0.0420552 8.682 0.00160591 8.49375 4.68429e-05C8.30551 -0.00151223 8.11987 0.03587 7.95424 0.108686C7.78862 0.181502 7.64844 0.287364 7.54687 0.416339C7.44529 0.545314 7.38565 0.693174 7.37354 0.846044C7.31136 1.70333 7.03594 2.54143 6.56397 3.30954C6.09201 4.07766 5.43331 4.75981 4.6278 5.31467L4.37172 5.48419C3.52941 5.94539 2.78383 6.51393 2.16362 7.16799C1.19953 8.15632 0.531672 9.31384 0.213019 10.5488C-0.105634 11.7837 -0.0663213 13.062 0.327839 14.2824C0.722 15.5028 1.46017 16.6317 2.4838 17.5796C3.50744 18.5274 4.78839 19.2682 6.22506 19.7431C6.39375 19.7991 6.57681 19.8206 6.75809 19.8055C6.93937 19.7904 7.1133 19.7393 7.26454 19.6566C7.41578 19.5738 7.53968 19.4621 7.62532 19.3312C7.71095 19.2003 7.75568 19.0543 7.75557 18.906C7.75478 18.8101 7.73612 18.7148 7.70024 18.6235C7.45165 17.8631 7.38007 17.0716 7.48918 16.2898C8.54056 17.9035 10.2282 19.1825 12.2808 19.9214C12.5314 20.0126 12.8146 20.0249 13.0757 19.9558C14.6974 19.5299 16.1583 18.7736 17.3197 17.7588C18.4811 16.744 19.3043 15.5044 19.7111 14.1578C20.1179 12.8112 20.0948 11.4023 19.644 10.0651C19.1932 8.72776 18.3296 7.50647 17.1354 6.51724ZM12.7968 18.1184C11.8282 17.719 10.9739 17.1582 10.2892 16.4724C9.60449 15.7866 9.10484 14.9913 8.82271 14.1381C8.73655 13.8508 8.6699 13.5598 8.62306 13.2666C8.59132 13.0798 8.48866 12.9058 8.32942 12.7689C8.17018 12.6319 7.96233 12.5389 7.73494 12.5028C7.66488 12.4916 7.59364 12.486 7.52224 12.486C7.32695 12.486 7.1351 12.5278 6.96603 12.6074C6.79696 12.6869 6.65664 12.8013 6.55924 12.939C5.63732 14.233 5.17369 15.7094 5.21972 17.2046C4.40888 16.6916 3.73122 16.0527 3.22603 15.325C2.72084 14.5973 2.39816 13.7953 2.2767 12.9654C2.15523 12.1355 2.23739 11.2942 2.51842 10.4903C2.79945 9.68643 3.27375 8.93593 3.91385 8.2823C4.39986 7.7686 4.98617 7.32327 5.6494 6.96406C5.67812 6.94897 5.70566 6.93246 5.73186 6.91461C5.73186 6.91461 6.06155 6.69263 6.07282 6.68755C7.65581 5.59802 8.78168 4.13383 9.2936 2.49894C10.5042 3.40963 11.3115 4.6201 11.59 5.9424C11.8685 7.26469 11.6027 8.62482 10.8339 9.81159C10.7323 9.96995 10.6906 10.1492 10.7141 10.3269C10.7376 10.5045 10.8252 10.6724 10.9659 10.8096C11.1066 10.9467 11.294 11.0469 11.5045 11.0974C11.7151 11.148 11.9393 11.1467 12.1489 11.0937C13.8509 10.6595 15.3486 9.81151 16.4404 8.66377C17.0966 9.45245 17.5255 10.3515 17.6954 11.2938C17.8652 12.2362 17.7715 13.1975 17.4213 14.1063C17.0711 15.0151 16.4733 15.8479 15.6726 16.5425C14.8719 17.2372 13.8889 17.7759 12.7968 18.1184Z" fill="white"/>
</svg>
